<svg xmlns="http://www.w3.org/2000/svg" viewBox="0 0 402.76 63.74"><defs><style>.cls-1{fill:#fff;}.cls-2{font-size:59.21px;fill:none;stroke:#fff;stroke-miterlimit:10;stroke-width:2px;font-family:Lato-Black, Lato Black;font-weight:800;}.cls-3{letter-spacing:-0.08em;}</style></defs><title>Asset 4</title><g id="Layer_2" data-name="Layer 2"><g id="Layer_1-2" data-name="Layer 1"><path class="cls-1" d="M1.77,26.08c1.68-3.17,3.92-6,5.13-9.47a23.55,23.55,0,0,1,2.46-4.16l.23.08c0,.43,0,.86.05,1.29C10,19.36,12.37,24,16.07,28A51.66,51.66,0,0,0,29,37.7a96.89,96.89,0,0,0,20.88,8.76A101,101,0,0,0,65.26,49.7c-.32-.13-.64-.29-1-.41a216.86,216.86,0,0,1-21-9A97.26,97.26,0,0,1,25.85,29.77a29.25,29.25,0,0,1-9.52-12,20.72,20.72,0,0,1-1.5-9.57c.05-.62.29-.84.89-.77a4.17,4.17,0,0,1,3.73,2.61,17.29,17.29,0,0,1,1.13,6,3.57,3.57,0,0,0,2.57,3.56,13.43,13.43,0,0,0,6.32.57,29.48,29.48,0,0,0,8.19-2.15c1-.38,1.2-.86.83-1.82a9.6,9.6,0,0,1-.33-4,4,4,0,0,1,6.05-2.76,6.84,6.84,0,0,1,2.2,2.37c1.23,2.39,2.32,4.86,3.33,7.36a4.73,4.73,0,0,1-.14,2.12c-.2,1.43-.43,2.85-.64,4.28a3.43,3.43,0,0,0-.05.56A1.19,1.19,0,0,0,50,27.48a1.13,1.13,0,0,0,1.34-.89c.17-.67.22-1.36.35-2.05.07-.38.17-.75.26-1.15a3.11,3.11,0,0,1,1.76,3l-.45,3c0,.14,0,.27,0,.4a1.29,1.29,0,0,0,1.08,1.52,1.25,1.25,0,0,0,1.42-1.1c.12-.58.18-1.16.29-1.74s.33-.63.78-.3A2.4,2.4,0,0,1,58,30.88c-.2.85-.29,1.73-.41,2.61s.25,1.61,1,1.74,1.36-.34,1.54-1.35c.11-.55.16-1.11.25-1.66s.38-.83,1-.49A1.74,1.74,0,0,1,62.41,34c-.16,1.08-.33,2.16-.49,3.25a3.91,3.91,0,0,0-.05.48A1.24,1.24,0,0,0,63,39.09a1.19,1.19,0,0,0,1.38-1c.25-1.31.42-2.64.65-4.07l1.06.5c2.69,1.2,5.37,2.39,8,3.6,1.8.81,3.59,1.64,5.39,2.46a2.79,2.79,0,0,1,1.85,2.67,23.5,23.5,0,0,1-.29,4.45,7.35,7.35,0,0,1-4,5c-1,.54-1.9,1.16-2.87,1.71-.75.43-1.48.83-2.34.09-.41-.36-.85-.06-1.15.35a2.92,2.92,0,0,1-3.07.89.88.88,0,0,1-.44-.49c-.21-.66-.57-.85-1.14-.47a3.61,3.61,0,0,0-.73.73,1.89,1.89,0,0,1-3.16-.06c-.4-.58-.75-.55-1.23-.11a3.56,3.56,0,0,1-4.36-.4,1,1,0,0,0-1.28-.34c-1.71.78-3.08,0-4.49-.83a4.94,4.94,0,0,0-1.37-.47c-.78-.17-1.57-.25-2.34-.45a1.1,1.1,0,0,1-.93-1.05.55.55,0,0,0-1-.33,1.17,1.17,0,0,1-1.38.31c-.9-.29-2-.29-2.36-1.49,0-.16-.56-.22-.87-.26a15.12,15.12,0,0,1-1.51-.13,1.07,1.07,0,0,1-.71-.53c-.24-.8-.79-.81-1.45-.79a5.56,5.56,0,0,1-1.58-.1c-.58-.14-1.15-.35-1.18-1.18,0-.62-.63-.71-1.12-.61a3.54,3.54,0,0,1-3.48-1.32.9.9,0,0,0-.85-.16,2.53,2.53,0,0,1-3.28-.58,1.45,1.45,0,0,0-1.24-.41c-1.36.65-2.35,0-3.24-.82-.49-.47-.82-.68-1.5-.38A1.68,1.68,0,0,1,17.34,42c-.51-1-.75-1.08-1.73-.56a1.48,1.48,0,0,1-2.32-.93c-.2-.71-.72-.51-1.23-.37a4.81,4.81,0,0,1-1.54.24,1.23,1.23,0,0,1-1.24-.94,1.13,1.13,0,0,0-.76-.59c-2.67-.57-4.64-2.37-6.8-3.81A3.83,3.83,0,0,1,0,31.57Z"/><text class="cls-2" transform="translate(95.36 52.17)"><tspan class="cls-3">F</tspan><tspan x="28.24" y="0">ANSHOES</tspan></text></g></g></svg>