<svg xmlns="http://www.w3.org/2000/svg" viewBox="0 0 529.22 93.31"><defs><style>.cls-1{font-size:83.04px;fill:#f2f2f2;font-family:Lato-BlackItalic, Lato Black;font-weight:800;font-style:italic;letter-spacing:-0.08em;}.cls-2{letter-spacing:0em;}.cls-3{fill:none;stroke:#fff;stroke-miterlimit:10;}</style></defs><title>Asset 4</title><g id="Layer_2" data-name="Layer 2"><g id="Layer_1-2" data-name="Layer 1"><text class="cls-1" transform="translate(134.22 72.55)">F<tspan class="cls-2" x="35.87" y="0">ANSHOES</tspan></text><path class="cls-3" d="M2.75,28.25c2.26-4.68,5.34-8.93,6.89-14,.67-2.19,2.2-4.12,3.33-6.17l.34.1c0,.62.08,1.25.14,1.86.77,8,4.53,14.54,10.1,20.13s12.27,9.75,19.28,13.36A140.33,140.33,0,0,0,73.54,55,149,149,0,0,0,96,58.87c-.47-.18-.93-.39-1.41-.54a315.27,315.27,0,0,1-30.9-11.85c-9-4-17.84-8.42-25.87-14.25-6.13-4.45-11.28-9.77-14.45-16.79A29.9,29.9,0,0,1,20.65,1.68C20.69.77,21,.45,21.9.51a6,6,0,0,1,5.54,3.57,25.07,25.07,0,0,1,2,8.66,5.16,5.16,0,0,0,3.92,5,19.41,19.41,0,0,0,9.18.47,42.86,42.86,0,0,0,11.74-3.57C55.62,14,56,13.33,55.36,12a13.76,13.76,0,0,1-.7-5.69c0-3.5,4.75-6.74,8.59-4.35a9.85,9.85,0,0,1,3.32,3.32c1.93,3.38,3.64,6.91,5.24,10.46.38.85,0,2.05-.08,3.08-.2,2.08-.46,4.15-.69,6.23a4.39,4.39,0,0,0,0,.81,1.72,1.72,0,0,0,1.69,1.73,1.62,1.62,0,0,0,1.88-1.35c.21-1,.25-2,.39-3,.08-.56.21-1.11.32-1.69A4.5,4.5,0,0,1,78,25.83c-.15,1.46-.32,2.92-.48,4.39,0,.19,0,.38,0,.57a1.85,1.85,0,0,0,1.65,2.14,1.81,1.81,0,0,0,2-1.68c.14-.83.19-1.69.32-2.53s.44-.92,1.11-.47c1.36.91,2.19,2,1.86,3.77-.24,1.25-.33,2.53-.45,3.81s.46,2.32,1.53,2.46,1.94-.56,2.15-2c.12-.8.17-1.61.27-2.42.12-1,.5-1.22,1.37-.76,1.58.82,1.9,1.41,1.7,3.15-.17,1.58-.35,3.16-.53,4.73,0,.23,0,.47,0,.7a1.79,1.79,0,0,0,1.68,2A1.71,1.71,0,0,0,94,42.05c.28-1.91.46-3.84.7-5.93.56.23,1.06.46,1.57.66l11.85,4.76c2.66,1.08,5.3,2.18,7.95,3.26a4.06,4.06,0,0,1,2.83,3.76,33.15,33.15,0,0,1-.18,6.46,10.61,10.61,0,0,1-5.43,7.46c-1.37.84-2.69,1.79-4.06,2.64-1.06.66-2.1,1.28-3.37.26-.62-.5-1.25,0-1.66.57a4.2,4.2,0,0,1-4.39,1.46,1.26,1.26,0,0,1-.66-.68c-.35-.94-.87-1.19-1.68-.62a4.81,4.81,0,0,0-1,1.1,2.75,2.75,0,0,1-4.59.09c-.6-.81-1.11-.75-1.78-.08-1.39,1.37-5.11,1.18-6.34-.34a1.41,1.41,0,0,0-1.87-.42c-2.42,1.23-4.46.14-6.55-.95a7.1,7.1,0,0,0-2-.6c-1.13-.21-2.29-.28-3.41-.53a1.59,1.59,0,0,1-1.41-1.46.79.79,0,0,0-1.45-.42,1.68,1.68,0,0,1-2,.52c-1.31-.37-2.9-.3-3.5-2-.09-.23-.83-.29-1.27-.33-.73-.06-1.48,0-2.19-.09a1.56,1.56,0,0,1-1.06-.74c-.39-1.13-1.2-1.13-2.14-1.05a8,8,0,0,1-2.3-.06c-.85-.18-1.68-.44-1.78-1.64-.07-.89-1-1-1.64-.83a5.09,5.09,0,0,1-5.12-1.72,1.33,1.33,0,0,0-1.24-.17,3.66,3.66,0,0,1-4.79-.66,2.08,2.08,0,0,0-1.81-.52c-1.93,1-3.41.16-4.73-1-.74-.65-1.23-.93-2.2-.45a2.43,2.43,0,0,1-3.13-1.26c-.8-1.43-1.15-1.53-2.54-.72a2.14,2.14,0,0,1-3.41-1.22c-.34-1-1.08-.68-1.81-.46a6.88,6.88,0,0,1-2.21.43,1.77,1.77,0,0,1-1.85-1.28,1.63,1.63,0,0,0-1.14-.82c-3.89-.67-6.84-3.16-10-5.13a5.55,5.55,0,0,1-2.69-5Z"/></g></g></svg>